<svg viewBox="0 0 1278 98" xmlns="http://www.w3.org/2000/svg" width="1278" height="98" fill="none" id="svg-1124941679_2657"><g clip-path="url(#svg-1124941679_2657_a)" stroke="#fff" stroke-opacity=".06" stroke-linecap="round"><path d="M528-684-536 380M537-684-527 380M546-684-518 380M555-684-509 380M564-684-500 380M573-684-491 380M582-684-482 380M591-684-473 380M600-684-464 380M609-684-455 380M618-684-446 380M627-684-437 380M636-684-428 380M645-684-419 380M654-684-410 380M663-684-401 380M672-684-392 380M681-684-383 380M690-684-374 380M699-684-365 380M708-684-356 380M717-684-347 380M726-684-338 380M735-684-329 380M744-684-320 380M753-684-311 380M762-684-302 380M771-684-293 380M780-684-284 380M789-684-275 380M798-684-266 380M807-684-257 380M816-684-248 380M825-684-239 380M834-684-230 380M843-684-221 380M852-684-212 380M861-684-203 380M870-684-194 380M879-684-185 380M888-684-176 380M897-684-167 380M906-684-158 380M915-684-149 380M924-684-140 380M933-684-131 380M942-684-122 380M951-684-113 380M960-684-104 380M969-684-95 380M978-684-86 380M987-684-77 380M996-684-68 380M1005-684-59 380M1014-684-50 380M1023-684-41 380M1032-684-32 380M1041-684-23 380M1050-684-14 380M1059-684-5 380M1068-684 4 380M1077-684 13 380M1086-684 22 380M1095-684 31 380M1104-684 40 380M1113-684 49 380M1122-684 58 380M1131-684 67 380M1140-684 76 380M1149-684 85 380M1158-684 94 380M1167-684 103 380M1176-684 112 380M1185-684 121 380M1194-684 130 380M1203-684 139 380M1212-684 148 380M1221-684 157 380M1230-684 166 380M1239-684 175 380M1248-684 184 380M1257-684 193 380M1266-684 202 380M1275-684 211 380M1284-684 220 380M1293-684 229 380M1302-684 238 380M1311-684 247 380M1320-684 256 380M1329-684 265 380M1338-684 274 380M1347-684 283 380M1356-684 292 380M1365-684 301 380M1374-684 310 380M1383-684 319 380M1392-684 328 380M1401-684 337 380M1410-684 346 380M1419-684 355 380M1428-684 364 380M1437-684 373 380M1446-684 382 380M1455-684 391 380M1464-684 400 380M1473-684 409 380M1482-684 418 380M1491-684 427 380M1500-684 436 380M1509-684 445 380M1518-684 454 380M1527-684 463 380M1536-684 472 380M1545-684 481 380M1554-684 490 380M1563-684 499 380M1572-684 508 380M1581-684 517 380M1590-684 526 380M1599-684 535 380M1608-684 544 380M1617-684 553 380M1626-684 562 380M1635-684 571 380M1644-684 580 380M1653-684 589 380M1662-684 598 380M1671-684 607 380M1680-684 616 380M1689-684 625 380M1698-684 634 380M1707-684 643 380M1716-684 652 380M1725-684 661 380M1734-684 670 380M1743-684 679 380M1752-684 688 380M1761-684 697 380M1770-684 706 380M1779-684 715 380M1788-684 724 380M1797-684 733 380M1806-684 742 380M1815-684 751 380"></path></g><defs><clipPath id="svg-1124941679_2657_a"><rect y="-1180" width="1278" height="1278" rx="639" fill="#fff"></rect></clipPath></defs></svg>