<svg xmlns="http://www.w3.org/2000/svg" xmlns:xlink="http://www.w3.org/1999/xlink" viewBox="0 0 1440 1440"><path d="M 201.175 1198.646 C 200.426 1197.834 199.161 1197.784 198.349 1198.533 L 192.471 1203.959 C 191.659 1204.708 191.609 1205.974 192.358 1206.785 L 192.358 1206.785 C 193.107 1207.597 194.372 1207.648 195.184 1206.898 L 201.062 1201.472 C 201.874 1200.723 201.925 1199.458 201.175 1198.646 Z" fill="rgba(255,255,255,0.12)" opacity="0.2"></path><path d="M 220.826 1219.188 C 220.045 1218.407 218.778 1218.407 217.997 1219.188 L 212.34 1224.845 C 211.559 1225.626 211.559 1226.893 212.34 1227.674 L 212.34 1227.674 C 213.121 1228.455 214.388 1228.455 215.169 1227.674 L 220.826 1222.017 C 221.607 1221.236 221.607 1219.969 220.826 1219.188 Z" fill="rgba(255,255,255,0.12)" opacity="0.2"></path><path d="M 241.292 1238.944 C 240.481 1238.194 239.215 1238.245 238.466 1239.057 L 233.04 1244.935 C 232.291 1245.747 232.341 1247.012 233.153 1247.761 L 233.153 1247.761 C 233.964 1248.51 235.23 1248.46 235.979 1247.648 L 241.405 1241.77 C 242.155 1240.958 242.104 1239.693 241.292 1238.944 Z" fill="rgba(255,255,255,0.12)" opacity="0.2"></path><path d="M 262.554 1257.856 C 261.713 1257.139 260.451 1257.241 259.735 1258.082 L 254.548 1264.172 C 253.832 1265.013 253.933 1266.275 254.774 1266.992 L 254.774 1266.992 C 255.615 1267.708 256.877 1267.607 257.593 1266.766 L 262.78 1260.675 C 263.496 1259.834 263.395 1258.572 262.554 1257.856 Z" fill="rgba(255,255,255,0.12)" opacity="0.2"></path><path d="M 284.584 1275.936 C 283.715 1275.254 282.458 1275.406 281.776 1276.275 L 276.837 1282.568 C 276.156 1283.437 276.307 1284.695 277.176 1285.376 L 277.176 1285.376 C 278.045 1286.058 279.302 1285.907 279.984 1285.038 L 284.923 1278.744 C 285.605 1277.875 285.453 1276.618 284.584 1275.936 Z" fill="rgba(255,255,255,0.12)" opacity="0.2"></path><path d="M 307.371 1293.175 C 306.475 1292.529 305.225 1292.731 304.578 1293.626 L 299.896 1300.113 C 299.249 1301.008 299.451 1302.259 300.347 1302.905 L 300.347 1302.905 C 301.243 1303.552 302.493 1303.35 303.139 1302.454 L 307.822 1295.967 C 308.468 1295.072 308.266 1293.822 307.371 1293.175 Z" fill="rgba(255,255,255,0.12)" opacity="0.3"></path><path d="M 330.895 1309.488 C 329.974 1308.878 328.733 1309.131 328.123 1310.051 L 323.706 1316.721 C 323.096 1317.642 323.348 1318.883 324.269 1319.493 L 324.269 1319.493 C 325.19 1320.103 326.431 1319.851 327.041 1318.93 L 331.458 1312.26 C 332.068 1311.339 331.816 1310.098 330.895 1309.488 Z" fill="rgba(255,255,255,0.12)" opacity="0.3"></path><path d="M 355.143 1324.871 C 354.198 1324.298 352.968 1324.6 352.396 1325.545 L 348.251 1332.388 C 347.679 1333.332 347.981 1334.562 348.926 1335.134 L 348.926 1335.134 C 349.871 1335.707 351.1 1335.405 351.673 1334.46 L 355.817 1327.617 C 356.39 1326.673 356.088 1325.443 355.143 1324.871 Z" fill="rgba(255,255,255,0.12)" opacity="0.3"></path><path d="M 380.103 1339.383 C 379.136 1338.849 377.919 1339.201 377.385 1340.168 L 373.521 1347.173 C 372.988 1348.14 373.339 1349.357 374.306 1349.89 L 374.306 1349.89 C 375.274 1350.424 376.49 1350.072 377.024 1349.105 L 380.888 1342.1 C 381.421 1341.133 381.07 1339.916 380.103 1339.383 Z" fill="rgba(255,255,255,0.12)" opacity="0.5"></path><path d="M 405.755 1352.854 C 404.767 1352.36 403.566 1352.761 403.072 1353.749 L 399.496 1360.905 C 399.002 1361.893 399.403 1363.094 400.391 1363.588 L 400.391 1363.588 C 401.379 1364.082 402.58 1363.681 403.074 1362.693 L 406.65 1355.537 C 407.144 1354.549 406.743 1353.347 405.755 1352.854 Z" fill="rgba(255,255,255,0.12)" opacity="0.5"></path><path d="M 427.52 1363.273 C 426.514 1362.817 425.329 1363.262 424.872 1364.267 L 421.564 1371.552 C 421.108 1372.557 421.553 1373.743 422.559 1374.2 L 422.559 1374.2 C 423.564 1374.656 424.75 1374.211 425.207 1373.206 L 428.514 1365.921 C 428.971 1364.916 428.526 1363.73 427.52 1363.273 Z" fill="rgba(255,255,255,0.12)" opacity="0.5"></path><path d="M 454.393 1374.911 C 453.37 1374.496 452.203 1374.99 451.788 1376.013 L 448.782 1383.427 C 448.367 1384.451 448.861 1385.617 449.884 1386.032 L 449.884 1386.032 C 450.908 1386.447 452.074 1385.954 452.489 1384.93 L 455.495 1377.516 C 455.91 1376.493 455.417 1375.326 454.393 1374.911 Z" fill="rgba(255,255,255,0.12)" opacity="0.7"></path><path d="M 481.951 1385.515 C 480.911 1385.142 479.766 1385.683 479.394 1386.723 L 476.696 1394.255 C 476.324 1395.294 476.865 1396.439 477.905 1396.812 L 477.905 1396.812 C 478.945 1397.184 480.089 1396.643 480.462 1395.603 L 483.16 1388.072 C 483.532 1387.032 482.991 1385.887 481.951 1385.515 Z" fill="rgba(255,255,255,0.12)" opacity="0.7"></path><path d="M 510.168 1395.002 C 509.114 1394.673 507.992 1395.261 507.663 1396.315 L 505.28 1403.952 C 504.951 1405.006 505.539 1406.128 506.593 1406.457 L 506.593 1406.457 C 507.648 1406.786 508.769 1406.198 509.098 1405.144 L 511.481 1397.507 C 511.81 1396.452 511.222 1395.331 510.168 1395.002 Z" fill="rgba(255,255,255,0.12)" opacity="0.7"></path><path d="M 533.975 1401.985 C 532.909 1401.696 531.81 1402.326 531.521 1403.392 L 529.429 1411.114 C 529.14 1412.18 529.77 1413.279 530.836 1413.567 L 530.836 1413.567 C 531.902 1413.856 533.001 1413.226 533.29 1412.16 L 535.382 1404.439 C 535.671 1403.373 535.041 1402.274 533.975 1401.985 Z" fill="rgba(255,255,255,0.12)" opacity="0.8"></path><path d="M 563.396 1409.375 C 562.319 1409.131 561.248 1409.806 561.003 1410.883 L 559.236 1418.686 C 558.992 1419.763 559.667 1420.834 560.744 1421.078 L 560.744 1421.078 C 561.821 1421.322 562.893 1420.647 563.137 1419.57 L 564.905 1411.767 C 565.149 1410.69 564.473 1409.619 563.396 1409.375 Z" fill="rgba(255,255,255,0.12)" opacity="0.8"></path><path d="M 588.2 1414.571 C 587.114 1414.368 586.07 1415.084 585.867 1416.17 L 584.398 1424.034 C 584.195 1425.12 584.911 1426.164 585.997 1426.367 L 585.997 1426.367 C 587.083 1426.57 588.127 1425.854 588.33 1424.768 L 589.799 1416.904 C 590.002 1415.819 589.286 1414.774 588.2 1414.571 Z" fill="rgba(255,255,255,0.12)" opacity="0.8"></path><path d="M 618.84 1419.745 C 617.747 1419.588 616.733 1420.347 616.576 1421.441 L 615.44 1429.36 C 615.283 1430.453 616.042 1431.467 617.136 1431.623 L 617.136 1431.623 C 618.229 1431.78 619.243 1431.021 619.4 1429.928 L 620.536 1422.009 C 620.693 1420.916 619.934 1419.902 618.84 1419.745 Z" fill="rgba(255,255,255,0.12)"></path><path d="M 644.629 1422.888 C 643.53 1422.774 642.546 1423.571 642.432 1424.67 L 641.6 1432.626 C 641.486 1433.725 642.283 1434.709 643.382 1434.823 L 643.382 1434.823 C 644.48 1434.938 645.464 1434.141 645.579 1433.042 L 646.41 1425.085 C 646.525 1423.987 645.727 1423.003 644.629 1422.888 Z" fill="rgba(255,255,255,0.12)"></path><path d="M 676.467 1425.616 C 675.364 1425.548 674.415 1426.387 674.347 1427.489 L 673.853 1435.474 C 673.785 1436.576 674.624 1437.525 675.726 1437.593 L 675.726 1437.593 C 676.829 1437.662 677.778 1436.823 677.846 1435.721 L 678.339 1427.736 C 678.408 1426.633 677.569 1425.684 676.467 1425.616 Z" fill="rgba(255,255,255,0.12)"></path><path d="M 760.36 1425.898 C 759.257 1425.962 758.415 1426.908 758.479 1428.01 L 758.942 1435.997 C 759.006 1437.1 759.951 1437.942 761.054 1437.878 L 761.054 1437.878 C 762.157 1437.814 762.999 1436.868 762.935 1435.766 L 762.472 1427.779 C 762.408 1426.676 761.463 1425.834 760.36 1425.898 Z" fill="rgba(255,255,255,0.12)"></path><path d="M 792.319 1423.528 C 791.22 1423.639 790.419 1424.619 790.529 1425.718 L 791.33 1433.678 C 791.441 1434.777 792.421 1435.578 793.52 1435.468 L 793.52 1435.468 C 794.619 1435.357 795.42 1434.377 795.31 1433.278 L 794.509 1425.318 C 794.399 1424.219 793.418 1423.418 792.319 1423.528 Z" fill="rgba(255,255,255,0.12)"></path><path d="M 818.23 1420.446 C 817.136 1420.599 816.373 1421.609 816.526 1422.703 L 817.631 1430.627 C 817.784 1431.721 818.795 1432.484 819.889 1432.331 L 819.889 1432.331 C 820.983 1432.178 821.746 1431.168 821.593 1430.074 L 820.487 1422.15 C 820.334 1421.056 819.324 1420.293 818.23 1420.446 Z" fill="rgba(255,255,255,0.12)"></path><path d="M 843.59 1416.37 C 842.502 1416.565 841.778 1417.604 841.973 1418.691 L 843.381 1426.566 C 843.576 1427.653 844.615 1428.377 845.702 1428.183 L 845.702 1428.183 C 846.79 1427.988 847.513 1426.949 847.319 1425.862 L 845.91 1417.987 C 845.716 1416.899 844.677 1416.176 843.59 1416.37 Z" fill="rgba(255,255,255,0.12)"></path><path d="M 873.764 1410.424 C 872.686 1410.664 872.006 1411.733 872.246 1412.811 L 873.984 1420.62 C 874.224 1421.698 875.293 1422.377 876.371 1422.137 L 876.371 1422.137 C 877.449 1421.897 878.129 1420.829 877.889 1419.751 L 876.151 1411.942 C 875.911 1410.863 874.842 1410.184 873.764 1410.424 Z" fill="rgba(255,255,255,0.12)" opacity="0.8"></path><path d="M 903.288 1403.238 C 902.221 1403.523 901.587 1404.619 901.872 1405.686 L 903.935 1413.416 C 904.22 1414.483 905.316 1415.117 906.383 1414.832 L 906.383 1414.832 C 907.45 1414.547 908.084 1413.451 907.8 1412.384 L 905.736 1404.655 C 905.452 1403.587 904.355 1402.953 903.288 1403.238 Z" fill="rgba(255,255,255,0.12)" opacity="0.8"></path><path d="M 927.21 1396.441 C 926.155 1396.766 925.562 1397.885 925.887 1398.941 L 928.242 1406.586 C 928.567 1407.642 929.686 1408.234 930.742 1407.909 L 930.742 1407.909 C 931.797 1407.584 932.39 1406.465 932.065 1405.409 L 929.71 1397.764 C 929.385 1396.708 928.266 1396.116 927.21 1396.441 Z" fill="rgba(255,255,255,0.12)" opacity="0.7"></path><path d="M 955.545 1387.139 C 954.503 1387.508 953.958 1388.651 954.327 1389.692 L 956.996 1397.234 C 957.364 1398.275 958.507 1398.82 959.549 1398.452 L 959.549 1398.452 C 960.59 1398.083 961.135 1396.94 960.767 1395.899 L 958.097 1388.358 C 957.729 1387.316 956.586 1386.771 955.545 1387.139 Z" fill="rgba(255,255,255,0.12)" opacity="0.7"></path><path d="M 983.242 1376.759 C 982.217 1377.17 981.719 1378.334 982.131 1379.36 L 985.109 1386.784 C 985.52 1387.81 986.685 1388.307 987.71 1387.896 L 987.71 1387.896 C 988.735 1387.485 989.233 1386.321 988.821 1385.295 L 985.843 1377.87 C 985.432 1376.845 984.268 1376.348 983.242 1376.759 Z" fill="rgba(255,255,255,0.12)" opacity="0.7"></path><path d="M 1010.234 1365.275 C 1009.227 1365.728 1008.777 1366.912 1009.23 1367.919 L 1012.511 1375.216 C 1012.964 1376.223 1014.148 1376.673 1015.155 1376.22 L 1015.155 1376.22 C 1016.162 1375.767 1016.612 1374.583 1016.159 1373.576 L 1012.879 1366.279 C 1012.426 1365.272 1011.242 1364.822 1010.234 1365.275 Z" fill="rgba(255,255,255,0.12)" opacity="0.7"></path><path d="M 1032.088 1354.961 C 1031.098 1355.451 1030.693 1356.651 1031.183 1357.641 L 1034.732 1364.811 C 1035.222 1365.801 1036.422 1366.206 1037.412 1365.716 L 1037.412 1365.716 C 1038.402 1365.226 1038.807 1364.026 1038.317 1363.036 L 1034.768 1355.866 C 1034.278 1354.877 1033.078 1354.471 1032.088 1354.961 Z" fill="rgba(255,255,255,0.12)" opacity="0.5"></path><path d="M 1057.909 1341.633 C 1056.939 1342.163 1056.583 1343.378 1057.113 1344.347 L 1060.952 1351.366 C 1061.482 1352.335 1062.697 1352.691 1063.666 1352.162 L 1063.666 1352.162 C 1064.635 1351.632 1064.991 1350.416 1064.461 1349.447 L 1060.623 1342.428 C 1060.093 1341.459 1058.878 1341.103 1057.909 1341.633 Z" fill="rgba(255,255,255,0.12)" opacity="0.5"></path><path d="M 1083.025 1327.311 C 1082.078 1327.88 1081.772 1329.108 1082.34 1330.055 L 1086.46 1336.913 C 1087.029 1337.86 1088.257 1338.166 1089.204 1337.598 L 1089.204 1337.598 C 1090.151 1337.029 1090.458 1335.8 1089.889 1334.853 L 1085.769 1327.995 C 1085.201 1327.049 1083.972 1326.742 1083.025 1327.311 Z" fill="rgba(255,255,255,0.12)" opacity="0.3"></path><path d="M 1107.42 1312.018 C 1106.496 1312.624 1106.24 1313.864 1106.846 1314.787 L 1111.24 1321.473 C 1111.846 1322.396 1113.086 1322.653 1114.009 1322.047 L 1114.009 1322.047 C 1114.932 1321.44 1115.189 1320.2 1114.582 1319.277 L 1110.189 1312.591 C 1109.583 1311.668 1108.343 1311.411 1107.42 1312.018 Z" fill="rgba(255,255,255,0.12)" opacity="0.3"></path><path d="M 1131.078 1295.804 C 1130.18 1296.447 1129.973 1297.696 1130.616 1298.594 L 1135.275 1305.098 C 1135.918 1305.996 1137.168 1306.202 1138.066 1305.559 L 1138.066 1305.559 C 1138.964 1304.916 1139.17 1303.667 1138.527 1302.769 L 1133.868 1296.265 C 1133.225 1295.367 1131.976 1295.16 1131.078 1295.804 Z" fill="rgba(255,255,255,0.12)" opacity="0.3"></path><path d="M 1154.019 1278.696 C 1153.148 1279.374 1152.992 1280.631 1153.67 1281.502 L 1158.586 1287.814 C 1159.265 1288.685 1160.522 1288.841 1161.393 1288.163 L 1161.393 1288.163 C 1162.264 1287.484 1162.421 1286.227 1161.742 1285.356 L 1156.826 1279.044 C 1156.147 1278.173 1154.891 1278.017 1154.019 1278.696 Z" fill="rgba(255,255,255,0.12)" opacity="0.2"></path><path d="M 1176.242 1260.72 C 1175.399 1261.433 1175.293 1262.695 1176.006 1263.539 L 1181.171 1269.648 C 1181.884 1270.492 1183.146 1270.598 1183.989 1269.885 L 1183.989 1269.885 C 1184.833 1269.171 1184.939 1267.91 1184.226 1267.066 L 1179.061 1260.957 C 1178.348 1260.113 1177.086 1260.007 1176.242 1260.72 Z" fill="rgba(255,255,255,0.12)" opacity="0.2"></path><path d="M 1197.671 1241.889 C 1196.857 1242.635 1196.802 1243.9 1197.548 1244.714 L 1202.953 1250.612 C 1203.699 1251.427 1204.964 1251.482 1205.779 1250.736 L 1205.779 1250.736 C 1206.593 1249.989 1206.648 1248.724 1205.902 1247.91 L 1200.497 1242.012 C 1199.751 1241.198 1198.486 1241.142 1197.671 1241.889 Z" fill="rgba(255,255,255,0.12)" opacity="0.2"></path><path d="M 1218.291 1222.217 C 1217.507 1222.996 1217.502 1224.262 1218.28 1225.046 L 1223.917 1230.723 C 1224.695 1231.507 1225.961 1231.512 1226.745 1230.733 L 1226.745 1230.733 C 1227.529 1229.955 1227.534 1228.689 1226.755 1227.905 L 1221.119 1222.228 C 1220.341 1221.444 1219.075 1221.439 1218.291 1222.217 Z" fill="rgba(255,255,255,0.12)" opacity="0.2"></path><path d="M 1238.117 1201.745 C 1237.365 1202.554 1237.411 1203.819 1238.22 1204.572 L 1244.079 1210.019 C 1244.888 1210.771 1246.153 1210.725 1246.905 1209.916 L 1246.905 1209.916 C 1247.657 1209.107 1247.611 1207.842 1246.802 1207.09 L 1240.944 1201.642 C 1240.135 1200.89 1238.869 1200.936 1238.117 1201.745 Z" fill="rgba(255,255,255,0.12)" opacity="0.2"></path><path d="M 719.124 1423.88 C 719.395 1423.429 719.882 1423.153 720.409 1423.153 C 720.935 1423.153 721.422 1423.429 721.693 1423.88 L 728.41 1435.01 C 729.468 1436.76 728.205 1439 726.158 1439 L 714.66 1439 C 712.612 1439 711.349 1436.76 712.407 1435.01 Z" fill="rgba(255,255,255,0.12)"></path><path d="M 208.04 1181.2 A 689 689 0 0 0 1231.96 1181.2 L 1194.79 1147.74 A 639 639 0 0 1 245.21 1147.74 Z" fill="rgba(255,255,255,0.04)"></path><path d="M 718.124 1387.872 C 718.395 1388.322 718.883 1388.597 719.409 1388.597 C 719.934 1388.597 720.422 1388.322 720.693 1387.872 L 727.41 1376.739 C 728.468 1374.986 727.205 1372.75 725.158 1372.75 L 713.66 1372.75 C 711.612 1372.75 710.349 1374.986 711.407 1376.74 Z" fill="rgba(255,255,255,0.12)"></path></svg>