<svg xmlns="http://www.w3.org/2000/svg" width="95" height="32" fill="none" id="svg-1424240548_3035"><path d="M27.85 11.1c0-.718.35-1.067 1.048-1.067.35 0 .796.039 1.32.117l.368-1.96c-.62-.155-1.339-.233-2.154-.233-2.347 0-2.812 1.707-2.812 2.775v2.017h-1.397v1.998h1.397v8.11h2.23v-8.109h2.523V12.75H27.85V11.1Zm10.34 1.552c-1.183 0-2.464.35-3.802 1.067l-.136-.97h-1.998v10.108h2.231V15.6c1.125-.504 2.366-.757 3.706-.757v-2.191Zm3.965-1.513c.542-.544.542-1.552 0-2.076-.524-.523-1.494-.523-2.038 0-.252.253-.388.601-.388 1.028 0 .427.136.776.389 1.048.543.524 1.513.524 2.037 0Zm.097 11.718V12.749H40.02v10.108h2.23ZM53.215 13.7c-1.106-.718-2.464-1.087-4.055-1.087-1.435 0-2.618.485-3.531 1.456-.911.95-1.377 2.21-1.377 3.743s.466 2.795 1.378 3.745c.912.95 2.095 1.435 3.531 1.435.678 0 1.474-.116 2.405-.329v.27c0 1.631-.64 2.232-2.192 2.232-1.01 0-2.056-.174-3.124-.523l-.66 1.707c1.204.465 2.523.698 3.977.698 2.872 0 4.23-1.357 4.23-4.229v-7.916c0-.562-.194-.97-.582-1.202Zm-3.938 7.371c-1.708 0-2.813-1.3-2.813-3.24 0-1.92 1.105-3.258 2.813-3.258.795 0 1.551.155 2.288.466v5.684a8.09 8.09 0 0 1-2.288.348Zm11.616-8.457c-1.534 0-3.105.33-4.714 1.009l.737 1.61c1.3-.505 2.503-.757 3.569-.757 1.222 0 1.766.699 1.766 2.31v.27c-.252 0-.834-.018-1.048-.018-3.415 0-5.394 1.202-5.394 3.22 0 1.707 1.262 2.755 3.26 2.755 1.26 0 2.348-.33 3.298-.99l.116.835H64.5v-6.053c0-2.794-1.202-4.191-3.608-4.191Zm-2.91 7.567c0-1.029 1.183-1.533 3.57-1.533h.698v1.823c-.68.466-1.824.815-2.657.815-1.069 0-1.612-.426-1.612-1.105Zm15.75-7.237c-.932-.214-1.727-.33-2.406-.33-1.436 0-2.619.485-3.531 1.455-.912.95-1.377 2.212-1.377 3.744 0 1.533.465 2.775 1.377 3.745.912.95 2.095 1.435 3.532 1.435 1.57 0 2.929-.349 4.054-1.066.387-.253.582-.64.582-1.204V8.443h-2.231v4.5Zm-2.29 8.09c-1.707 0-2.813-1.32-2.813-3.26 0-1.94 1.106-3.24 2.814-3.24.737 0 1.493.117 2.288.35v5.684a5.82 5.82 0 0 1-2.288.466Zm16.077-2.949c0-1.59-.387-2.89-1.144-3.919-.757-1.028-1.901-1.551-3.434-1.551-1.455 0-2.64.484-3.55 1.435-.912.951-1.378 2.211-1.378 3.763 0 1.533.466 2.795 1.378 3.764.91.951 2.114 1.436 3.589 1.436 1.339 0 2.696-.31 4.074-.912l-.738-1.63c-1.125.485-2.172.718-3.143.718-1.532 0-2.6-.873-2.89-2.405h7.236v-.699Zm-7.294-.93c.213-1.65 1.183-2.756 2.716-2.756 1.533 0 2.366 1.048 2.503 2.755h-5.22Z" fill="#002A7A"></path><path fill-rule="evenodd" clip-rule="evenodd" d="M10.2 15.055a6.111 6.111 0 0 0-1.755 3.626l5.394.032c.19 0 .38-.02.566-.06h.004a2.706 2.706 0 0 0 2.136-2.58v-.067a2.704 2.704 0 0 0-2.138-2.649h-.003l-.003-.002a2.61 2.61 0 0 0-.543-.06 6.122 6.122 0 0 0-3.657 1.76ZM3.49 8.343A6.026 6.026 0 0 1 7.765 6.57l6.069.039h.002a2.71 2.71 0 0 1 .002 5.418h-.002l-6.066-.038h-.003a7.298 7.298 0 0 0-5.176 2.145 7.365 7.365 0 0 0-.877 1.057v-2.568a6.03 6.03 0 0 1 1.774-4.28Z" fill="#0155F8"></path><path fill-rule="evenodd" clip-rule="evenodd" d="M3.49 15.047a6.1 6.1 0 0 0-1.775 4.314v3.402a2.709 2.709 0 1 0 5.417-.043v-2.434h.003v-.291l.034-1.274a7.466 7.466 0 0 1 3.201-5.446l-2.601-.017h-.003a5.984 5.984 0 0 0-3.18.911c-.398.25-.766.544-1.097.878Z" fill="#0155F8"></path></svg>