<svg xmlns="http://www.w3.org/2000/svg" width="120" height="28" fill="none"><path fill="#002A7A" d="M32.49 8.284c0-.838.408-1.245 1.223-1.245.407 0 .928.045 1.539.136l.43-2.286c-.724-.181-1.562-.272-2.513-.272-2.738 0-3.281 1.992-3.281 3.237v2.354h-1.63v2.331h1.63V22h2.602v-9.46h2.943v-2.332H32.49V8.284Zm12.064 1.81c-1.381 0-2.875.408-4.437 1.245l-.158-1.131h-2.331V22h2.603v-8.465c1.312-.588 2.76-.883 4.323-.883v-2.558Zm4.625-1.765c.633-.634.633-1.81 0-2.422-.611-.61-1.743-.61-2.377 0-.294.295-.453.702-.453 1.2s.159.905.453 1.222c.634.611 1.766.611 2.377 0ZM49.292 22V10.208h-2.603V22h2.603Zm12.79-10.683c-1.29-.838-2.874-1.268-4.73-1.268-1.675 0-3.055.566-4.12 1.698-1.063 1.109-1.606 2.58-1.606 4.368 0 1.788.543 3.26 1.607 4.369s2.444 1.674 4.12 1.674c.79 0 1.72-.135 2.806-.384v.316c0 1.902-.747 2.603-2.558 2.603-1.177 0-2.4-.203-3.644-.61l-.77 1.991c1.404.543 2.943.815 4.64.815 3.35 0 4.935-1.584 4.935-4.934V12.72c0-.656-.227-1.132-.68-1.403Zm-4.594 8.6c-1.992 0-3.282-1.516-3.282-3.78 0-2.24 1.29-3.802 3.282-3.802.928 0 1.81.181 2.67.544v6.631c-.866.263-1.765.4-2.67.407ZM71.04 10.05c-1.79 0-3.622.385-5.5 1.177l.86 1.879c1.516-.589 2.92-.883 4.164-.883 1.426 0 2.06.815 2.06 2.694v.316c-.294 0-.973-.022-1.222-.022-3.984 0-6.293 1.403-6.293 3.757 0 1.992 1.472 3.214 3.803 3.214 1.47 0 2.739-.385 3.848-1.154l.135.973h2.354v-7.062c0-3.259-1.402-4.889-4.21-4.889Zm-3.396 8.828c0-1.2 1.38-1.788 4.165-1.788h.815v2.127c-.792.543-2.128.95-3.1.95-1.246 0-1.88-.496-1.88-1.289Zm18.376-8.443c-1.087-.249-2.015-.385-2.807-.385-1.675 0-3.055.566-4.12 1.698-1.063 1.109-1.606 2.58-1.606 4.368 0 1.788.543 3.237 1.607 4.369 1.064 1.109 2.444 1.674 4.12 1.674 1.832 0 3.417-.407 4.73-1.244.452-.295.679-.747.679-1.404V5.183H86.02v5.252Zm-2.671 9.438c-1.992 0-3.282-1.539-3.282-3.802 0-2.264 1.29-3.78 3.282-3.78.86 0 1.743.136 2.67.408v6.631a6.79 6.79 0 0 1-2.67.543Zm18.756-3.44c0-1.856-.452-3.372-1.335-4.572-.883-1.2-2.218-1.81-4.006-1.81-1.698 0-3.08.565-4.142 1.674-1.064 1.11-1.607 2.58-1.607 4.391 0 1.788.543 3.26 1.607 4.391 1.063 1.11 2.467 1.675 4.187 1.675 1.562 0 3.146-.362 4.753-1.064l-.86-1.901c-1.313.566-2.535.837-3.667.837-1.788 0-3.033-1.018-3.372-2.806h8.442v-.815Zm-8.51-1.086c.249-1.924 1.38-3.214 3.169-3.214 1.788 0 2.76 1.222 2.92 3.214h-6.09Z"/><path fill="#0155F8" fill-rule="evenodd" d="M11.899 12.899a7.13 7.13 0 0 0-2.048 4.23l6.293.038c.222 0 .443-.024.66-.071h.005a3.156 3.156 0 0 0 2.492-3.01v-.078a3.155 3.155 0 0 0-2.494-3.09l-.004-.001-.004-.001a2.988 2.988 0 0 0-.633-.07 7.143 7.143 0 0 0-4.267 2.053Zm-7.83-7.831A7.03 7.03 0 0 1 9.059 3l7.08.045h.002a3.16 3.16 0 0 1 .003 6.321h-.003l-7.076-.044h-.004a8.513 8.513 0 0 0-6.039 2.502c-.378.377-.72.79-1.023 1.233v-2.995c0-1.95.79-3.715 2.07-4.994Z" clip-rule="evenodd"/><path fill="#0155F8" fill-rule="evenodd" d="M4.069 12.887a7.117 7.117 0 0 0-2.07 5.033v3.97a3.16 3.16 0 0 0 6.32-.051V19h.003v-.34l.04-1.486a8.71 8.71 0 0 1 3.735-6.354l-3.035-.02h-.003a6.981 6.981 0 0 0-3.71 1.063c-.465.29-.894.634-1.28 1.024Z" clip-rule="evenodd"/></svg>