<svg xmlns="http://www.w3.org/2000/svg" viewBox="0 0 20 28" fill="none">
  <defs>
    <linearGradient id="f-grad" x1="0" y1="0" x2="0" y2="17" gradientUnits="userSpaceOnUse">
      <stop offset="0" stop-color="#ffffff" stop-opacity="1"/>
      <stop offset="1" stop-color="#222127" stop-opacity="1"/>
    </linearGradient>
  </defs>
  <path d="M2.49 2.343A6.026 6.026 0 0 1 6.765.57l6.069.039h.002a2.71 2.71 0 0 1 .002 5.418h-.002l-6.066-.038h-.003a7.298 7.298 0 0 0-5.176 2.145 7.365 7.365 0 0 0-.877 1.057V6.623a6.03 6.03 0 0 1 1.774-4.28Z" fill="url(#f-grad)" stroke="#ffffff" stroke-width="0.1" stroke-opacity="0.45"/>
  <path d="M9.2 9.055a6.111 6.111 0 0 0-1.755 3.626l5.394.032c.19 0 .38-.02.566-.06h.004a2.706 2.706 0 0 0 2.136-2.58v-.067a2.704 2.704 0 0 0-2.138-2.649h-.003l-.003-.002a2.61 2.61 0 0 0-.543-.06 6.122 6.122 0 0 0-3.657 1.76Z" fill="url(#f-grad)" stroke="#ffffff" stroke-width="0.1" stroke-opacity="0.45"/>
  <path d="M2.49 9.047a6.1 6.1 0 0 0-1.775 4.314v3.402a2.709 2.709 0 1 0 5.417-.043v-2.434h.003v-.291l.034-1.274a7.466 7.466 0 0 1 3.201-5.446l-2.601-.017h-.003a5.984 5.984 0 0 0-3.18.911c-.398.25-.766.544-1.097.878Z" fill="url(#f-grad)" stroke="#ffffff" stroke-width="0.1" stroke-opacity="0.45"/>
</svg>
