<svg xmlns="http://www.w3.org/2000/svg" width="171" height="28" fill="none"><path fill="#002A7A" d="M32.49 8.284c0-.838.408-1.245 1.223-1.245.407 0 .928.045 1.539.136l.43-2.286c-.724-.181-1.562-.272-2.513-.272-2.738 0-3.281 1.992-3.281 3.237v2.354h-1.63v2.331h1.63V22h2.602v-9.46h2.943v-2.332H32.49V8.284Zm12.064 1.81c-1.381 0-2.875.408-4.437 1.245l-.158-1.131h-2.331V22h2.603v-8.465c1.312-.588 2.76-.883 4.323-.883v-2.558Zm4.625-1.765c.633-.634.633-1.81 0-2.422-.611-.61-1.743-.61-2.377 0-.294.295-.453.702-.453 1.2s.159.905.453 1.222c.634.611 1.766.611 2.377 0ZM49.292 22V10.208h-2.603V22h2.603Zm12.79-10.683c-1.29-.838-2.874-1.268-4.73-1.268-1.675 0-3.055.566-4.12 1.698-1.063 1.109-1.606 2.58-1.606 4.368 0 1.788.543 3.26 1.607 4.369s2.444 1.674 4.12 1.674c.79 0 1.72-.135 2.806-.384v.316c0 1.902-.747 2.603-2.558 2.603-1.177 0-2.4-.203-3.644-.61l-.77 1.991c1.404.543 2.943.815 4.64.815 3.35 0 4.935-1.584 4.935-4.934V12.72c0-.656-.227-1.132-.68-1.403Zm-4.594 8.6c-1.992 0-3.282-1.516-3.282-3.78 0-2.24 1.29-3.802 3.282-3.802.928 0 1.81.181 2.67.544v6.631c-.866.263-1.765.4-2.67.407ZM71.04 10.05c-1.79 0-3.622.385-5.5 1.177l.86 1.879c1.516-.589 2.92-.883 4.164-.883 1.426 0 2.06.815 2.06 2.694v.316c-.294 0-.973-.022-1.222-.022-3.984 0-6.293 1.403-6.293 3.757 0 1.992 1.472 3.214 3.803 3.214 1.47 0 2.739-.385 3.848-1.154l.135.973h2.354v-7.062c0-3.259-1.402-4.889-4.21-4.889Zm-3.396 8.828c0-1.2 1.38-1.788 4.165-1.788h.815v2.127c-.792.543-2.128.95-3.1.95-1.246 0-1.88-.496-1.88-1.289Zm18.376-8.443c-1.087-.249-2.015-.385-2.807-.385-1.675 0-3.055.566-4.12 1.698-1.063 1.109-1.606 2.58-1.606 4.368 0 1.788.543 3.237 1.607 4.369 1.064 1.109 2.444 1.674 4.12 1.674 1.832 0 3.417-.407 4.73-1.244.452-.295.679-.747.679-1.404V5.183H86.02v5.252Zm-2.671 9.438c-1.992 0-3.282-1.539-3.282-3.802 0-2.264 1.29-3.78 3.282-3.78.86 0 1.743.136 2.67.408v6.631a6.79 6.79 0 0 1-2.67.543Zm18.756-3.44c0-1.856-.452-3.372-1.335-4.572-.883-1.2-2.218-1.81-4.006-1.81-1.698 0-3.08.565-4.142 1.674-1.064 1.11-1.607 2.58-1.607 4.391 0 1.788.543 3.26 1.607 4.391 1.063 1.11 2.467 1.675 4.187 1.675 1.562 0 3.146-.362 4.753-1.064l-.86-1.901c-1.313.566-2.535.837-3.667.837-1.788 0-3.033-1.018-3.372-2.806h8.442v-.815Zm-8.51-1.086c.249-1.924 1.38-3.214 3.169-3.214 1.788 0 2.76 1.222 2.92 3.214h-6.09Z"/><path fill="#0155F8" fill-rule="evenodd" d="M11.899 12.899a7.13 7.13 0 0 0-2.048 4.23l6.293.038c.222 0 .443-.024.66-.071h.005a3.156 3.156 0 0 0 2.492-3.01v-.078a3.155 3.155 0 0 0-2.494-3.09l-.004-.001-.004-.001a2.988 2.988 0 0 0-.633-.07 7.143 7.143 0 0 0-4.267 2.053Zm-7.83-7.831A7.03 7.03 0 0 1 9.059 3l7.08.045h.002a3.16 3.16 0 0 1 .003 6.321h-.003l-7.076-.044h-.004a8.513 8.513 0 0 0-6.039 2.502c-.378.377-.72.79-1.023 1.233v-2.995c0-1.95.79-3.715 2.07-4.994Z" clip-rule="evenodd"/><path fill="#0155F8" fill-rule="evenodd" d="M4.069 12.887a7.117 7.117 0 0 0-2.07 5.033v3.97a3.16 3.16 0 0 0 6.32-.051V19h.003v-.34l.04-1.486a8.71 8.71 0 0 1 3.735-6.354l-3.035-.02h-.003a6.981 6.981 0 0 0-3.71 1.063c-.465.29-.894.634-1.28 1.024Z" clip-rule="evenodd"/><rect width="59.143" height="23" x="111.001" y="3.388" fill="#002A7A" fill-opacity=".09" rx="4.172"/><path fill="#002A7A" d="M124.336 14.855c0 .245-.016.466-.048.664h-4.991c.04.522.234.94.581 1.257.348.316.775.474 1.281.474.727 0 1.24-.305 1.541-.913h1.458a2.963 2.963 0 0 1-1.079 1.482c-.514.379-1.154.569-1.92.569a3.408 3.408 0 0 1-1.684-.415 3.105 3.105 0 0 1-1.162-1.186c-.276-.513-.414-1.106-.414-1.778 0-.672.134-1.26.403-1.766.276-.514.66-.909 1.15-1.186.497-.276 1.066-.415 1.707-.415.616 0 1.165.135 1.647.404.482.268.858.648 1.127 1.138.268.482.403 1.039.403 1.671Zm-1.411-.427c-.008-.498-.186-.897-.534-1.197-.347-.3-.778-.45-1.292-.45-.466 0-.865.15-1.197.45-.332.292-.529.691-.593 1.197h3.616Zm6.036-2.786c.514 0 .972.107 1.375.32.411.214.731.53.96.949.23.419.344.925.344 1.517v3.853h-1.339V14.63c0-.585-.146-1.032-.439-1.34-.292-.316-.691-.474-1.197-.474-.506 0-.909.158-1.209.474-.293.308-.439.755-.439 1.34v3.651h-1.351v-6.532h1.351v.747c.221-.269.502-.478.842-.628a2.75 2.75 0 0 1 1.102-.226Zm7.035 0c.506 0 .952.103 1.339.309.396.197.704.446.925.746v-.948h1.363v6.639c0 .6-.126 1.134-.379 1.6-.253.474-.62.846-1.102 1.114-.475.27-1.044.404-1.708.404-.885 0-1.62-.21-2.205-.629a2.28 2.28 0 0 1-.995-1.683h1.339c.103.34.32.612.652.818.34.213.743.32 1.209.32.546 0 .984-.166 1.316-.498.34-.332.51-.814.51-1.446v-1.09a2.797 2.797 0 0 1-.936.782c-.388.205-.83.308-1.328.308a2.985 2.985 0 0 1-1.565-.427 3.164 3.164 0 0 1-1.114-1.21c-.269-.52-.403-1.11-.403-1.766 0-.655.134-1.236.403-1.742a3.007 3.007 0 0 1 2.679-1.6Zm2.264 3.367c0-.45-.095-.841-.284-1.174a1.906 1.906 0 0 0-1.696-1.02 1.92 1.92 0 0 0-.972.262c-.3.166-.545.415-.735.747-.181.324-.272.711-.272 1.161 0 .45.091.846.272 1.186.19.34.435.6.735.782a1.951 1.951 0 0 0 1.944 0c.301-.174.542-.427.724-.758a2.4 2.4 0 0 0 .284-1.186Zm2.688-.024c0-.655.134-1.236.403-1.742a3.014 3.014 0 0 1 2.679-1.6c.514 0 .96.102 1.34.308.387.197.695.446.924.746v-.948h1.364v6.532h-1.364v-.972a2.682 2.682 0 0 1-.936.77 2.887 2.887 0 0 1-1.352.309 2.904 2.904 0 0 1-1.541-.427 3.172 3.172 0 0 1-1.114-1.21c-.269-.52-.403-1.11-.403-1.766Zm5.346.024c0-.45-.095-.841-.284-1.174a1.919 1.919 0 0 0-.723-.758 1.912 1.912 0 0 0-.972-.261c-.348 0-.672.087-.972.26a1.9 1.9 0 0 0-.735.748c-.182.324-.273.711-.273 1.161 0 .45.091.846.273 1.186.189.34.434.6.735.782a1.948 1.948 0 0 0 1.944 0c.3-.174.541-.427.723-.758a2.4 2.4 0 0 0 .284-1.186Zm5.77-3.367c.506 0 .953.103 1.34.309.395.197.703.446.925.746v-.948h1.363v6.639c0 .6-.127 1.134-.379 1.6a2.724 2.724 0 0 1-1.103 1.114c-.474.27-1.043.404-1.707.404-.885 0-1.62-.21-2.205-.629a2.278 2.278 0 0 1-.996-1.683h1.34c.103.34.32.612.652.818.34.213.743.32 1.209.32.545 0 .984-.166 1.316-.498.34-.332.51-.814.51-1.446v-1.09c-.23.307-.542.568-.937.782a2.79 2.79 0 0 1-1.328.308c-.569 0-1.09-.143-1.564-.427a3.166 3.166 0 0 1-1.115-1.21c-.268-.52-.403-1.11-.403-1.766 0-.655.135-1.236.403-1.742a3.01 3.01 0 0 1 2.679-1.6Zm2.265 3.367c0-.45-.095-.841-.285-1.174a1.919 1.919 0 0 0-.723-.758c-.3-.174-.624-.261-.972-.261s-.672.087-.972.26a1.9 1.9 0 0 0-.735.748c-.182.324-.273.711-.273 1.161 0 .45.091.846.273 1.186.189.34.434.6.735.782a1.948 1.948 0 0 0 1.944 0c.3-.174.541-.427.723-.758.19-.34.285-.735.285-1.186Zm9.124-.154c0 .245-.015.466-.047.664h-4.991c.04.522.233.94.581 1.257.348.316.775.474 1.28.474.728 0 1.241-.305 1.542-.913h1.458a2.969 2.969 0 0 1-1.079 1.482c-.514.379-1.154.569-1.921.569a3.407 3.407 0 0 1-1.683-.415 3.105 3.105 0 0 1-1.162-1.186c-.276-.513-.415-1.106-.415-1.778 0-.672.135-1.26.403-1.766a2.92 2.92 0 0 1 1.15-1.186c.498-.276 1.067-.415 1.707-.415.617 0 1.166.135 1.648.404a2.83 2.83 0 0 1 1.126 1.138c.269.482.403 1.039.403 1.671Zm-1.41-.427c-.008-.498-.186-.897-.534-1.197-.347-.3-.778-.45-1.292-.45-.466 0-.865.15-1.197.45-.332.292-.53.691-.593 1.197h3.616Z"/></svg>