<svg xmlns="http://www.w3.org/2000/svg" xmlns:xlink="http://www.w3.org/1999/xlink" viewBox="0 0 1040 420">
<g transform="translate(-169, 0)"><g><path d="M 169 0 L 1209 0 L 1209 276 L 169 276 Z" fill="transparent"></path><g><defs><radialGradient id="svg916174501_1800_idspUBXsclNg_3g-975145466" cy="0.022" cx="0.5" r="0.4" gradientTransform="translate(0.5, 0.022) scale(1 0.7249999999999999) translate(-0.5, -0.022)"><stop offset="0" stop-color="rgb(244,246,247)" stop-opacity="1"></stop><stop offset="1" stop-color="rgb(255,255,255)" stop-opacity="1"></stop></radialGradient></defs><path d="M 0 719 C 0 338.476 308.476 30 689 30 C 1069.524 30 1378 338.476 1378 719 C 1378 1099.524 1069.524 1408 689 1408 C 308.476 1408 0 1099.524 0 719 Z" fill="url(#svg916174501_1800_idspUBXsclNg_3g-975145466)"></path></g><path d="M 50 719 C 50 366.09 336.09 80 689 80 C 1041.91 80 1328 366.09 1328 719 C 1328 1071.91 1041.91 1358 689 1358 C 336.09 1358 50 1071.91 50 719 Z" fill="rgb(255,255,255)"></path></g></g>

</svg>