<svg xmlns="http://www.w3.org/2000/svg" width="99" height="99" fill="none"><g stroke="#22224F" stroke-linecap="round" stroke-opacity=".06" clip-path="url(#a)"><path d="M99-94.5 0 4.5m99-90-99 99m99-90-99 99m99-90-99 99m99-90-99 99m99-90-99 99m99-90-99 99m99-90-99 99m99-90-99 99m99-90-99 99m99-90-99 99m99-90-99 99m99-90-99 99m99-90-99 99m99-90-99 99m99-90-99 99m99-90-99 99m99-90-99 99m99-90-99 99m99-90-99 99m99-90-99 99m99-90-99 99"/></g><defs><clipPath id="a"><path fill="#fff" d="M0 0h99v99H0z"/></clipPath></defs></svg>